<svg id="Capa_1" enable-background="new 0 0 511.968 511.968" height="512" viewBox="0 0 511.968 511.968" width="512" xmlns="http://www.w3.org/2000/svg" xmlns:xlink="http://www.w3.org/1999/xlink"><linearGradient id="SVGID_1_" gradientUnits="userSpaceOnUse" x1="255.984" x2="255.984" y1="511.969" y2="0"><stop offset="0" stop-color="#5558ff"/><stop offset="1" stop-color="#00c0ff"/></linearGradient><g><g><path d="m256.968 210c24.813 0 45 20.187 45 45 0 8.284 6.716 15 15 15s15-6.716 15-15c0-41.355-33.645-75-75-75-8.284 0-15 6.716-15 15s6.716 15 15 15zm0-90c74.439 0 135 60.561 135 135 0 8.284 6.716 15 15 15s15-6.716 15-15c0-90.981-74.019-165-165-165-8.284 0-15 6.716-15 15s6.716 15 15 15zm80.608 202.885c-5.856-5.857-15.354-5.858-21.213 0l-37.805 37.804c-41.773-32.335-72.636-57.844-127.241-127.317l37.766-37.766c5.858-5.858 5.858-15.355 0-21.213l-95.46-95.459c-5.858-5.857-15.355-5.858-21.213 0l-50.485 50.484c-25.488 25.488-29.192 65.644-8.809 95.481 41.588 60.874 111.193 162.758 273.952 273.952 29.909 20.434 70.057 16.616 95.481-8.808l50.484-50.485c5.858-5.858 5.858-15.355 0-21.213zm23.761 145.945c-15.294 15.293-39.411 17.503-57.345 5.25-158.096-108.008-225.707-206.974-266.103-266.104-12.252-17.934-10.044-42.051 5.25-57.345l39.878-39.877 74.246 74.246-36.527 36.528c-5.334 5.333-5.877 13.798-1.269 19.77 65.536 84.928 97.753 109.965 151.204 151.204 5.971 4.608 14.436 4.065 19.77-1.269l36.528-36.527 74.246 74.246zm-104.369-468.83c-8.284 0-15 6.716-15 15s6.716 15 15 15c124.065 0 225 100.935 225 225 0 8.284 6.716 15 15 15s15-6.716 15-15c0-140.607-114.392-255-255-255z" fill="url(#SVGID_1_)"/></g></g></svg>